<?xml
version="1.0" encoding="UTF-8"?>
<!DOCTYPE svg PUBLIC "-//W3C//DTD SVG 1.1//EN" "http://www.w3.org/Graphics/SVG/1.1/DTD/svg11.dtd">
<svg xmlns="http://www.w3.org/2000/svg" xmlns:xlink="http://www.w3.org/1999/xlink">
    <symbol id="ejs-enter-fullscreen" viewBox="0 0 512 512">
        <path d="M208 281.4c-12.5-12.5-32.76-12.5-45.26-.002l-78.06 78.07l-30.06-30.06c-6.125-6.125-14.31-9.367-22.63-9.367c-4.125 0-8.279 .7891-12.25 2.43c-11.97 4.953-19.75 16.62-19.75 29.56v135.1C.0013 501.3 10.75 512 24 512h136c12.94 0 24.63-7.797 29.56-19.75c4.969-11.97 2.219-25.72-6.938-34.87l-30.06-30.06l78.06-78.07c12.5-12.49 12.5-32.75 .002-45.25L208 281.4zM487.1 0h-136c-12.94 0-24.63 7.797-29.56 19.75c-4.969 11.97-2.219 25.72 6.938 34.87l30.06 30.06l-78.06 78.07c-12.5 12.5-12.5 32.76 0 45.26l22.62 22.62c12.5 12.5 32.76 12.5 45.26 0l78.06-78.07l30.06 30.06c9.156 9.141 22.87 11.84 34.87 6.937C504.2 184.6 512 172.9 512 159.1V23.1C512 10.74 501.3 0 487.1 0z"/>
    </symbol>
    <symbol id="ejs-exit-fullscreen" viewBox="0 0 512 512">
        <path d="M215.1 272h-136c-12.94 0-24.63 7.797-29.56 19.75C45.47 303.7 48.22 317.5 57.37 326.6l30.06 30.06l-78.06 78.07c-12.5 12.5-12.5 32.75-.0012 45.25l22.62 22.62c12.5 12.5 32.76 12.5 45.26 .0013l78.06-78.07l30.06 30.06c6.125 6.125 14.31 9.367 22.63 9.367c4.125 0 8.279-.7891 12.25-2.43c11.97-4.953 19.75-16.62 19.75-29.56V296C239.1 282.7 229.3 272 215.1 272zM296 240h136c12.94 0 24.63-7.797 29.56-19.75c4.969-11.97 2.219-25.72-6.938-34.87l-30.06-30.06l78.06-78.07c12.5-12.5 12.5-32.76 .0002-45.26l-22.62-22.62c-12.5-12.5-32.76-12.5-45.26-.0003l-78.06 78.07l-30.06-30.06c-9.156-9.141-22.87-11.84-34.87-6.937c-11.97 4.953-19.75 16.62-19.75 29.56v135.1C272 229.3 282.7 240 296 240z"/>
    </symbol>
    <symbol id="ejs-gamepad" viewBox="0 0 640 512">
        <path fill="currentColor" d="M480 96H160C71.6 96 0 167.6 0 256s71.6 160 160 160c44.8 0 85.2-18.4 114.2-48h91.5c29 29.6 69.5 48 114.2 48 88.4 0 160-71.6 160-160S568.4 96 480 96zM256 276c0 6.6-5.4 12-12 12h-52v52c0 6.6-5.4 12-12 12h-40c-6.6 0-12-5.4-12-12v-52H76c-6.6 0-12-5.4-12-12v-40c0-6.6 5.4-12 12-12h52v-52c0-6.6 5.4-12 12-12h40c6.6 0 12 5.4 12 12v52h52c6.6 0 12 5.4 12 12v40zm184 68c-26.5 0-48-21.5-48-48s21.5-48 48-48 48 21.5 48 48-21.5 48-48 48zm80-80c-26.5 0-48-21.5-48-48s21.5-48 48-48 48 21.5 48 48-21.5 48-48 48z"/>
    </symbol>
    <symbol id="ejs-load-state" viewBox="0 0 576 512">
        <path fill="currentColor" d="M572.694 292.093L500.27 416.248A63.997 63.997 0 0 1 444.989 448H45.025c-18.523 0-30.064-20.093-20.731-36.093l72.424-124.155A64 64 0 0 1 152 256h399.964c18.523 0 30.064 20.093 20.73 36.093zM152 224h328v-48c0-26.51-21.49-48-48-48H272l-64-64H48C21.49 64 0 85.49 0 112v278.046l69.077-118.418C86.214 242.25 117.989 224 152 224z"/>
    </symbol>
    <symbol id="ejs-muted" viewBox="0 0 576 512">
        <path d="M301.2 34.85c-11.5-5.188-25.02-3.122-34.44 5.253L131.8 160H48c-26.51 0-48 21.49-48 47.1v95.1c0 26.51 21.49 47.1 48 47.1h83.84l134.9 119.9c5.984 5.312 13.58 8.094 21.26 8.094c4.438 0 8.972-.9375 13.17-2.844c11.5-5.156 18.82-16.56 18.82-29.16V64C319.1 51.41 312.7 40 301.2 34.85zM513.9 255.1l47.03-47.03c9.375-9.375 9.375-24.56 0-33.94s-24.56-9.375-33.94 0L480 222.1L432.1 175c-9.375-9.375-24.56-9.375-33.94 0s-9.375 24.56 0 33.94l47.03 47.03l-47.03 47.03c-9.375 9.375-9.375 24.56 0 33.94c9.373 9.373 24.56 9.381 33.94 0L480 289.9l47.03 47.03c9.373 9.373 24.56 9.381 33.94 0c9.375-9.375 9.375-24.56 0-33.94L513.9 255.1z"/>
    </symbol>
    <symbol id="ejs-netplay" viewBox="0 0 512 512">
        <path fill="currentColor" d="M364.215 192h131.43c5.439 20.419 8.354 41.868 8.354 64s-2.915 43.581-8.354 64h-131.43c5.154-43.049 4.939-86.746 0-128zM185.214 352c10.678 53.68 33.173 112.514 70.125 151.992.221.001.44.008.661.008s.44-.008.661-.008c37.012-39.543 59.467-98.414 70.125-151.992H185.214zm174.13-192h125.385C452.802 84.024 384.128 27.305 300.95 12.075c30.238 43.12 48.821 96.332 58.394 147.925zm-27.35 32H180.006c-5.339 41.914-5.345 86.037 0 128h151.989c5.339-41.915 5.345-86.037-.001-128zM152.656 352H27.271c31.926 75.976 100.6 132.695 183.778 147.925-30.246-43.136-48.823-96.35-58.393-147.925zm206.688 0c-9.575 51.605-28.163 104.814-58.394 147.925 83.178-15.23 151.852-71.949 183.778-147.925H359.344zm-32.558-192c-10.678-53.68-33.174-112.514-70.125-151.992-.221 0-.44-.008-.661-.008s-.44.008-.661.008C218.327 47.551 195.872 106.422 185.214 160h141.572zM16.355 192C10.915 212.419 8 233.868 8 256s2.915 43.581 8.355 64h131.43c-4.939-41.254-5.154-84.951 0-128H16.355zm136.301-32c9.575-51.602 28.161-104.81 58.394-147.925C127.872 27.305 59.198 84.024 27.271 160h125.385z"/>
    </symbol>
    <symbol id="ejs-pause" viewBox="0 0 320 512">
        <path d="M272 63.1l-32 0c-26.51 0-48 21.49-48 47.1v288c0 26.51 21.49 48 48 48L272 448c26.51 0 48-21.49 48-48v-288C320 85.49 298.5 63.1 272 63.1zM80 63.1l-32 0c-26.51 0-48 21.49-48 48v288C0 426.5 21.49 448 48 448l32 0c26.51 0 48-21.49 48-48v-288C128 85.49 106.5 63.1 80 63.1z"/>
    </symbol>
    <symbol id="ejs-play" viewBox="0 0 320 512">
        <path d="M361 215C375.3 223.8 384 239.3 384 256C384 272.7 375.3 288.2 361 296.1L73.03 472.1C58.21 482 39.66 482.4 24.52 473.9C9.377 465.4 0 449.4 0 432V80C0 62.64 9.377 46.63 24.52 38.13C39.66 29.64 58.21 29.99 73.03 39.04L361 215z"/>
    </symbol>
    <symbol id="ejs-restart" viewBox="0 0 512 512">
        <path d="M496 48V192c0 17.69-14.31 32-32 32H320c-17.69 0-32-14.31-32-32s14.31-32 32-32h63.39c-29.97-39.7-77.25-63.78-127.6-63.78C167.7 96.22 96 167.9 96 256s71.69 159.8 159.8 159.8c34.88 0 68.03-11.03 95.88-31.94c14.22-10.53 34.22-7.75 44.81 6.375c10.59 14.16 7.75 34.22-6.375 44.81c-39.03 29.28-85.36 44.86-134.2 44.86C132.5 479.9 32 379.4 32 256s100.5-223.9 223.9-223.9c69.15 0 134 32.47 176.1 86.12V48c0-17.69 14.31-32 32-32S496 30.31 496 48z"/>
    </symbol>
    <symbol id="ejs-save-state" viewBox="0 0 448 512">
        <path fill="currentColor" d="M433.941 129.941l-83.882-83.882A48 48 0 0 0 316.118 32H48C21.49 32 0 53.49 0 80v352c0 26.51 21.49 48 48 48h352c26.51 0 48-21.49 48-48V163.882a48 48 0 0 0-14.059-33.941zM224 416c-35.346 0-64-28.654-64-64 0-35.346 28.654-64 64-64s64 28.654 64 64c0 35.346-28.654 64-64 64zm96-304.52V212c0 6.627-5.373 12-12 12H76c-6.627 0-12-5.373-12-12V108c0-6.627 5.373-12 12-12h228.52c3.183 0 6.235 1.264 8.485 3.515l3.48 3.48A11.996 11.996 0 0 1 320 111.48z"/>
    </symbol>
    <symbol id="ejs-settings" viewBox="0 0 448 512">
        <path d="M495.9 166.6C499.2 175.2 496.4 184.9 489.6 191.2L446.3 230.6C447.4 238.9 448 247.4 448 256C448 264.6 447.4 273.1 446.3 281.4L489.6 320.8C496.4 327.1 499.2 336.8 495.9 345.4C491.5 357.3 486.2 368.8 480.2 379.7L475.5 387.8C468.9 398.8 461.5 409.2 453.4 419.1C447.4 426.2 437.7 428.7 428.9 425.9L373.2 408.1C359.8 418.4 344.1 427 329.2 433.6L316.7 490.7C314.7 499.7 307.7 506.1 298.5 508.5C284.7 510.8 270.5 512 255.1 512C241.5 512 227.3 510.8 213.5 508.5C204.3 506.1 197.3 499.7 195.3 490.7L182.8 433.6C167 427 152.2 418.4 138.8 408.1L83.14 425.9C74.3 428.7 64.55 426.2 58.63 419.1C50.52 409.2 43.12 398.8 36.52 387.8L31.84 379.7C25.77 368.8 20.49 357.3 16.06 345.4C12.82 336.8 15.55 327.1 22.41 320.8L65.67 281.4C64.57 273.1 64 264.6 64 256C64 247.4 64.57 238.9 65.67 230.6L22.41 191.2C15.55 184.9 12.82 175.3 16.06 166.6C20.49 154.7 25.78 143.2 31.84 132.3L36.51 124.2C43.12 113.2 50.52 102.8 58.63 92.95C64.55 85.8 74.3 83.32 83.14 86.14L138.8 103.9C152.2 93.56 167 84.96 182.8 78.43L195.3 21.33C197.3 12.25 204.3 5.04 213.5 3.51C227.3 1.201 241.5 0 256 0C270.5 0 284.7 1.201 298.5 3.51C307.7 5.04 314.7 12.25 316.7 21.33L329.2 78.43C344.1 84.96 359.8 93.56 373.2 103.9L428.9 86.14C437.7 83.32 447.4 85.8 453.4 92.95C461.5 102.8 468.9 113.2 475.5 124.2L480.2 132.3C486.2 143.2 491.5 154.7 495.9 166.6V166.6zM256 336C300.2 336 336 300.2 336 255.1C336 211.8 300.2 175.1 256 175.1C211.8 175.1 176 211.8 176 255.1C176 300.2 211.8 336 256 336z"/>
    </symbol>
    <symbol id="ejs-volume" viewBox="0 0 640 512">
        <path d="M412.6 182c-10.28-8.334-25.41-6.867-33.75 3.402c-8.406 10.24-6.906 25.35 3.375 33.74C393.5 228.4 400 241.8 400 255.1c0 14.17-6.5 27.59-17.81 36.83c-10.28 8.396-11.78 23.5-3.375 33.74c4.719 5.806 11.62 8.802 18.56 8.802c5.344 0 10.75-1.779 15.19-5.399C435.1 311.5 448 284.6 448 255.1S435.1 200.4 412.6 182zM473.1 108.2c-10.22-8.334-25.34-6.898-33.78 3.34c-8.406 10.24-6.906 25.35 3.344 33.74C476.6 172.1 496 213.3 496 255.1s-19.44 82.1-53.31 110.7c-10.25 8.396-11.75 23.5-3.344 33.74c4.75 5.775 11.62 8.771 18.56 8.771c5.375 0 10.75-1.779 15.22-5.431C518.2 366.9 544 313 544 255.1S518.2 145 473.1 108.2zM534.4 33.4c-10.22-8.334-25.34-6.867-33.78 3.34c-8.406 10.24-6.906 25.35 3.344 33.74C559.9 116.3 592 183.9 592 255.1s-32.09 139.7-88.06 185.5c-10.25 8.396-11.75 23.5-3.344 33.74C505.3 481 512.2 484 519.2 484c5.375 0 10.75-1.779 15.22-5.431C601.5 423.6 640 342.5 640 255.1S601.5 88.34 534.4 33.4zM301.2 34.98c-11.5-5.181-25.01-3.076-34.43 5.29L131.8 160.1H48c-26.51 0-48 21.48-48 47.96v95.92c0 26.48 21.49 47.96 48 47.96h83.84l134.9 119.8C272.7 477 280.3 479.8 288 479.8c4.438 0 8.959-.9314 13.16-2.835C312.7 471.8 320 460.4 320 447.9V64.12C320 51.55 312.7 40.13 301.2 34.98z"/>
    </symbol>
    <symbol id="ejs-cheat" viewBox="0 0 496 512">
        <path fill="currentColor" d="M248 8C111 8 0 119 0 256s111 248 248 248 248-111 248-248S385 8 248 8zm0 448c-110.3 0-200-89.7-200-200S137.7 56 248 56s200 89.7 200 200-89.7 200-200 200zm-80-216c17.7 0 32-14.3 32-32s-14.3-32-32-32-32 14.3-32 32 14.3 32 32 32zm160 0c17.7 0 32-14.3 32-32s-14.3-32-32-32-32 14.3-32 32 14.3 32 32 32zm4 72.6c-20.8 25-51.5 39.4-84 39.4s-63.2-14.3-84-39.4c-8.5-10.2-23.7-11.5-33.8-3.1-10.2 8.5-11.5 23.6-3.1 33.8 30 36 74.1 56.6 120.9 56.6s90.9-20.6 120.9-56.6c8.5-10.2 7.1-25.3-3.1-33.8-10.1-8.4-25.3-7.1-33.8 3.1z" class=""></path>
    </symbol>
    <symbol id="ejs-disk" viewBox="0 0 24 24">
        <path fill-rule="evenodd" clip-rule="evenodd" d="M12 9C10.3431 9 9 10.3431 9 12C9 13.6569 10.3431 15 12 15C13.6569 15 15 13.6569 15 12C15 10.3431 13.6569 9 12 9ZM11 12C11 12.5523 11.4477 13 12 13C12.5523 13 13 12.5523 13 12C13 11.4477 12.5523 11 12 11C11.4477 11 11 11.4477 11 12Z" fill="currentColor" /><path d="M5 12C5 8.13401 8.13401 5 12 5V7C9.23858 7 7 9.23858 7 12H5Z" fill="currentColor" /><path d="M12 17C14.7614 17 17 14.7614 17 12H19C19 15.866 15.866 19 12 19V17Z" fill="currentColor" /><path fill-rule="evenodd" clip-rule="evenodd" d="M12 1C5.92487 1 1 5.92487 1 12C1 18.0751 5.92487 23 12 23C18.0751 23 23 18.0751 23 12C23 5.92487 18.0751 1 12 1ZM3 12C3 16.9706 7.02944 21 12 21C16.9706 21 21 16.9706 21 12C21 7.02944 16.9706 3 12 3C7.02944 3 3 7.02944 3 12Z" fill="currentColor" />
    </symbol>
    <symbol id="ejs-lock" viewBox="0 0 448 512">
        <path fill="currentColor" d="M400 224h-24v-72C376 68.2 307.8 0 224 0S72 68.2 72 152v72H48c-26.5 0-48 21.5-48 48v192c0 26.5 21.5 48 48 48h352c26.5 0 48-21.5 48-48V272c0-26.5-21.5-48-48-48zm-104 0H152v-72c0-39.7 32.3-72 72-72s72 32.3 72 72v72z" class=""></path>
    </symbol>
    <symbol id="ejs-chat" viewBox="0 0 512 512">
        <path d="M256 32C114.6 32 .0272 125.1 .0272 240c0 49.63 21.35 94.98 56.97 130.7c-12.5 50.37-54.27 95.27-54.77 95.77c-2.25 2.25-2.875 5.734-1.5 8.734C1.979 478.2 4.75 480 8 480c66.25 0 115.1-31.76 140.6-51.39C181.2 440.9 217.6 448 256 448c141.4 0 255.1-93.13 255.1-208S397.4 32 256 32z"/>
    </symbol>
    <symbol id="ejs-drop-down" viewBox="0 0 512 512">
        <path d="M256 0a256 256 0 1 0 0 512A256 256 0 1 0 256 0zM135 241c-9.4-9.4-9.4-24.6 0-33.9s24.6-9.4 33.9 0l87 87 87-87c9.4-9.4 24.6-9.4 33.9 0s9.4 24.6 0 33.9L273 345c-9.4 9.4-24.6 9.4-33.9 0L135 241z"/>
    </symbol>
    <symbol id="ejs-load-sav" viewBox="0 0 24 24">
        <path d="M3 7.5V5C3 3.89543 3.89543 3 5 3H16.1716C16.702 3 17.2107 3.21071 17.5858 3.58579L20.4142 6.41421C20.7893 6.78929 21 7.29799 21 7.82843V19C21 20.1046 20.1046 21 19 21H5C3.89543 21 3 20.1046 3 19V16.5" stroke="currentColor" stroke-linecap="round" stroke-linejoin="round" fill="transparent"/>
        <path d="M6 21V17" stroke="currentColor" stroke-linecap="round" stroke-linejoin="round"/>
        <path d="M18 21V13.6C18 13.2686 17.7314 13 17.4 13H15" stroke="currentColor" stroke-linecap="round" stroke-linejoin="round" fill="transparent"/>
        <path d="M16 3V8.4C16 8.73137 15.7314 9 15.4 9H13.5" stroke="currentColor" stroke-linecap="round" stroke-linejoin="round" fill="transparent"/>
        <path d="M8 3V6" stroke="currentColor" stroke-linecap="round" stroke-linejoin="round"/>
        <path d="M1 12H12M12 12L9 9M12 12L9 15" stroke="currentColor" stroke-linecap="round" stroke-linejoin="round"/>
    </symbol>
    <symbol id="ejs-save-sav" viewBox="0 0 24 24">
        <path d="M3 6.5V5C3 3.89543 3.89543 3 5 3H16.1716C16.702 3 17.2107 3.21071 17.5858 3.58579L20.4142 6.41421C20.7893 6.78929 21 7.29799 21 7.82843V19C21 20.1046 20.1046 21 19 21H5C3.89543 21 3 20.1046 3 19V17.5" stroke="currentColor" stroke-linecap="round" stroke-linejoin="round" fill="transparent"/>
        <path d="M8 3H16V8.4C16 8.73137 15.7314 9 15.4 9H8.6C8.26863 9 8 8.73137 8 8.4V3Z" stroke="currentColor" stroke-linecap="round" stroke-linejoin="round" fill="transparent"/>
        <path d="M18 21V13.6C18 13.2686 17.7314 13 17.4 13H15" stroke="currentColor" stroke-linecap="round" stroke-linejoin="round" fill="transparent"/>
        <path d="M6 21V17.5" stroke="currentColor" stroke-linecap="round" stroke-linejoin="round" fill="transparent"/><path d="M12 12H1M1 12L4 9M1 12L4 15" stroke="currentColor" stroke-linecap="round" stroke-linejoin="round"/>
    </symbol>
</svg>
